<?xml version="1.0" encoding="UTF-8" standalone="no"?>
<!DOCTYPE svg PUBLIC "-//W3C//DTD SVG 1.1//EN"
 "http://www.w3.org/Graphics/SVG/1.1/DTD/svg11.dtd">
<!-- Generated by graphviz version 2.38.0 (20140413.2041)
 -->
<!-- Title: G Pages: 1 -->
<svg width="113pt" height="132pt"
 viewBox="0.00 0.00 113.00 132.00" xmlns="http://www.w3.org/2000/svg" xmlns:xlink="http://www.w3.org/1999/xlink">
<g id="graph0" class="graph" transform="scale(1 1) rotate(0) translate(4 128)">
<title>G</title>
<polygon fill="white" stroke="none" points="-4,4 -4,-128 109,-128 109,4 -4,4"/>
<g id="clust1" class="cluster"><title>cluster_Global</title>
<path fill="none" stroke="gray" d="M20,-8C20,-8 85,-8 85,-8 91,-8 97,-14 97,-20 97,-20 97,-104 97,-104 97,-110 91,-116 85,-116 85,-116 20,-116 20,-116 14,-116 8,-110 8,-104 8,-104 8,-20 8,-20 8,-14 14,-8 20,-8"/>
<text text-anchor="middle" x="52.5" y="-103.2" font-family="Times,serif" font-size="11.00" fill="gray">Global</text>
</g>
<g id="clust2" class="cluster"><title>cluster_\LibMQTT</title>
<path fill="none" stroke="gray" d="M28,-16C28,-16 77,-16 77,-16 83,-16 89,-22 89,-28 89,-28 89,-76 89,-76 89,-82 83,-88 77,-88 77,-88 28,-88 28,-88 22,-88 16,-82 16,-76 16,-76 16,-28 16,-28 16,-22 22,-16 28,-16"/>
<text text-anchor="middle" x="52.5" y="-75.2" font-family="Times,serif" font-size="11.00" fill="gray">LibMQTT</text>
</g>
<!-- \\LibMQTT\\Client -->
<g id="node1" class="node"><title>\\LibMQTT\\Client</title>
<polygon fill="none" stroke="black" points="81,-60 24,-60 24,-24 81,-24 81,-60"/>
<text text-anchor="middle" x="52.5" y="-39.2" font-family="Courier,monospace" font-size="11.00">Client</text>
</g>
</g>
</svg>
